<?xml version="1.0" standalone="no"?>
<!DOCTYPE svg PUBLIC "-//W3C//DTD SVG 20010904//EN"
 "http://www.w3.org/TR/2001/REC-SVG-20010904/DTD/svg10.dtd">
<svg version="1.0" xmlns="http://www.w3.org/2000/svg"
 width="200.000000pt" height="200.000000pt" viewBox="0 0 200.000000 200.000000"
 preserveAspectRatio="xMidYMid meet">

<g transform="translate(0.000000,200.000000) scale(0.100000,-0.100000)"
fill="#000000" stroke="none">
<path d="M802 1834 c-45 -32 -13 -70 34 -39 19 12 23 20 15 29 -6 7 -8 16 -4
19 13 14 -23 6 -45 -9z"/>
<path d="M1227 1764 c-9 -10 46 -65 60 -60 7 3 12 2 12 -2 -4 -24 2 -35 12
-25 7 7 8 19 4 30 -5 10 -7 23 -6 30 1 6 -3 14 -9 18 -6 3 -7 0 -4 -9 3 -9 2
-16 -4 -16 -5 0 -12 9 -15 20 -5 19 -36 28 -50 14z"/>
<path d="M900 1720 c-6 -11 -8 -20 -6 -20 3 0 10 9 16 20 6 11 8 20 6 20 -3 0
-10 -9 -16 -20z"/>
<path d="M570 1713 c0 -6 8 -17 18 -24 16 -13 16 -13 2 6 -8 11 -16 22 -17 24
-2 2 -3 0 -3 -6z"/>
<path d="M1348 1675 c2 -14 8 -22 13 -19 5 3 5 14 -1 25 -14 26 -18 24 -12 -6z"/>
<path d="M1400 1693 c0 -6 8 -17 18 -24 16 -13 16 -13 2 6 -8 11 -16 22 -17
24 -2 2 -3 0 -3 -6z"/>
<path d="M1112 1643 c-2 -31 -3 -32 -28 -22 -38 14 -41 4 -4 -11 37 -16 43
-11 37 32 l-4 33 -1 -32z"/>
<path d="M595 1640 c-10 -11 -16 -22 -14 -24 2 -2 12 7 22 20 22 29 17 32 -8
4z"/>
<path d="M971 1644 c0 -11 3 -14 6 -6 3 7 2 16 -1 19 -3 4 -6 -2 -5 -13z"/>
<path d="M881 1634 c0 -11 3 -14 6 -6 3 7 2 16 -1 19 -3 4 -6 -2 -5 -13z"/>
<path d="M1142 1620 c0 -19 2 -27 5 -17 2 9 2 25 0 35 -3 9 -5 1 -5 -18z"/>
<path d="M1277 1639 c7 -7 15 -10 18 -7 3 3 -2 9 -12 12 -14 6 -15 5 -6 -5z"/>
<path d="M1422 1630 c0 -14 2 -19 5 -12 2 6 2 18 0 25 -3 6 -5 1 -5 -13z"/>
<path d="M1457 1643 c-4 -3 -7 -13 -7 -22 1 -13 3 -13 11 2 11 19 8 33 -4 20z"/>
<path d="M1241 1613 c-1 -18 -10 -55 -21 -83 -23 -58 -17 -69 7 -12 25 60 31
86 22 107 -6 16 -8 14 -8 -12z"/>
<path d="M275 1616 c-83 -26 -108 -38 -93 -48 9 -7 7 -8 -10 -5 -12 3 -20 1
-16 -4 3 -5 -3 -9 -14 -9 -21 0 -147 -59 -140 -66 3 -2 35 10 72 26 80 37 225
64 311 58 55 -3 65 -8 94 -38 27 -28 30 -30 18 -9 -12 20 -13 29 -4 38 8 8 8
11 -1 11 -7 0 -12 7 -12 15 0 8 -5 15 -12 15 -6 0 -8 3 -5 6 4 4 19 -1 34 -10
l28 -17 -28 25 c-25 23 -36 26 -105 25 -42 -1 -95 -6 -117 -13z m-15 -20 c0
-2 -8 -10 -17 -17 -16 -13 -17 -12 -4 4 13 16 21 21 21 13z m165 -6 c3 -6 -4
-10 -17 -10 -18 0 -20 2 -8 10 19 12 18 12 25 0z"/>
<path d="M1045 1594 c28 -13 64 -23 80 -23 27 2 27 2 5 6 -13 3 -46 14 -72 24
-67 26 -74 23 -13 -7z"/>
<path d="M596 1593 c-6 -14 -5 -15 5 -6 7 7 10 15 7 18 -3 3 -9 -2 -12 -12z"/>
<path d="M1735 1574 l-30 -14 35 6 c19 3 39 10 45 15 14 14 -16 9 -50 -7z"/>
<path d="M1380 1569 c0 -5 5 -7 10 -4 6 3 10 8 10 11 0 2 -4 4 -10 4 -5 0 -10
-5 -10 -11z"/>
<path d="M1686 1561 c-3 -5 1 -11 9 -14 9 -4 12 -1 8 9 -6 16 -10 17 -17 5z"/>
<path d="M1392 1547 c-8 -10 -6 -13 7 -13 11 0 17 6 14 13 -3 7 -6 13 -8 13
-1 0 -7 -6 -13 -13z"/>
<path d="M1607 1525 c3 -8 9 -12 14 -9 12 7 11 11 -5 17 -10 4 -13 1 -9 -8z"/>
<path d="M1541 1513 c-5 -10 -13 -15 -17 -11 -4 4 -13 -4 -21 -18 -17 -35 -2
-54 41 -53 30 1 30 1 6 9 -20 7 -14 14 10 12 3 0 6 9 7 21 0 12 -1 16 -4 10
-3 -7 -12 -13 -21 -13 -13 0 -11 4 6 16 13 9 29 13 36 11 8 -3 13 0 12 8 -3
24 -15 29 -33 14 -11 -9 -14 -10 -9 -1 4 6 5 12 2 12 -3 0 -9 -8 -15 -17z"/>
<path d="M186 1495 c-3 -9 -11 -13 -16 -10 -6 4 -9 1 -8 -6 2 -6 -3 -14 -11
-17 -9 -3 -11 0 -6 8 5 9 4 11 -4 6 -6 -4 -9 -12 -6 -17 4 -5 -6 -10 -22 -11
-46 -2 -51 -3 -59 -11 -11 -11 -26 -8 -19 4 4 6 -2 5 -14 -3 -28 -17 -26 -25
6 -23 16 1 19 0 8 -2 -11 -3 -24 -9 -30 -14 -17 -17 72 0 175 33 88 28 99 30
156 19 34 -6 86 -11 117 -11 31 0 59 -4 62 -10 3 -5 15 -10 26 -10 11 0 17 -4
14 -10 -3 -5 -2 -10 2 -10 8 0 43 71 43 87 0 3 -9 -2 -20 -12 -20 -18 -34 -20
-132 -13 -35 2 -58 -1 -58 -7 0 -7 -3 -7 -8 0 -4 6 -14 10 -22 10 -8 -1 -29 4
-47 11 -17 7 -33 11 -35 9 -2 -2 -25 -6 -51 -8 -42 -5 -47 -4 -36 9 6 8 10 17
7 20 -3 3 -8 -2 -12 -11z m4 -39 c0 -2 -7 -7 -16 -10 -8 -3 -12 -2 -9 4 6 10
25 14 25 6z m-93 -32 c-3 -3 -12 -4 -19 -1 -8 3 -5 6 6 6 11 1 17 -2 13 -5z"/>
<path d="M1771 1488 c-19 -9 -42 -24 -50 -33 -9 -9 7 -4 34 11 58 32 60 33 54
37 -2 2 -19 -5 -38 -15z"/>
<path d="M1390 1490 c-9 -6 -10 -10 -3 -10 6 0 15 5 18 10 8 12 4 12 -15 0z"/>
<path d="M1415 1480 c-3 -5 -1 -10 4 -10 6 0 11 5 11 10 0 6 -2 10 -4 10 -3 0
-8 -4 -11 -10z"/>
<path d="M1405 1449 c-4 -6 -2 -31 5 -55 13 -45 14 -45 49 -40 20 3 44 5 54 6
9 0 17 3 17 8 0 4 -19 6 -43 4 -48 -4 -61 6 -73 52 -5 22 -4 27 6 21 9 -5 11
-4 6 3 -9 15 -13 15 -21 1z"/>
<path d="M1590 1450 c-13 -8 -12 -10 3 -10 9 0 17 5 17 10 0 12 -1 12 -20 0z"/>
<path d="M821 1397 c-85 -43 -111 -62 -71 -52 14 3 37 1 50 -4 21 -9 16 -10
-31 -8 -48 2 -61 -2 -95 -28 -59 -44 -83 -74 -94 -114 -14 -50 -13 -55 15 -81
19 -18 45 -69 50 -100 3 -17 34 -62 35 -49 0 8 -4 19 -9 25 -4 5 -21 48 -36
96 -33 103 -29 137 17 185 37 38 44 40 53 14 5 -18 44 -36 54 -26 2 3 -3 13
-13 24 -14 15 -14 20 -3 24 7 3 19 -4 25 -14 16 -25 37 -24 55 1 14 20 14 20
40 -4 32 -29 36 -20 7 12 -24 26 -20 27 20 7 24 -12 29 -12 33 -1 4 9 -6 20
-26 30 -18 8 -26 16 -19 16 7 0 10 5 7 10 -3 6 -17 10 -31 10 -34 0 -30 14 11
33 45 21 119 22 198 1 81 -21 82 -22 50 -47 -40 -31 -73 -70 -73 -87 0 -10 5
-8 15 7 8 11 24 23 36 26 20 5 20 5 3 -14 -9 -10 -13 -19 -7 -19 15 0 44 36
36 44 -4 4 0 4 10 0 9 -3 17 -12 17 -19 0 -12 21 -25 41 -25 5 0 13 9 17 20 5
13 11 17 21 10 19 -11 0 -37 -32 -43 -12 -3 -3 -3 21 -2 28 2 47 9 57 21 13
18 14 18 34 0 40 -36 44 -83 16 -179 -14 -48 -34 -103 -45 -123 -11 -19 -20
-41 -20 -49 0 -8 -10 -23 -22 -35 -12 -11 -18 -20 -13 -20 4 0 -2 -9 -14 -19
-13 -11 -20 -25 -16 -30 3 -6 1 -11 -5 -11 -6 0 -10 -6 -9 -12 3 -16 -33 -78
-44 -78 -5 0 -6 -4 -3 -9 3 -5 -1 -15 -10 -22 -13 -10 -17 -10 -26 2 -8 11 -9
11 -4 -3 3 -10 1 -18 -4 -18 -5 0 -14 8 -19 18 -8 14 -11 14 -12 2 -1 -8 -1
-18 0 -22 0 -5 -12 -8 -29 -8 -16 0 -29 3 -29 8 4 25 -2 33 -23 26 -13 -4 -25
-9 -28 -13 -3 -3 -24 -7 -47 -8 -37 -1 -46 3 -82 42 -23 24 -42 52 -44 62 -4
24 -60 113 -71 113 -4 0 -3 -7 4 -15 9 -11 9 -15 1 -15 -8 0 -7 -7 3 -22 9
-12 16 -27 16 -33 0 -5 -11 6 -23 25 -29 42 -73 151 -82 203 -4 20 -11 37 -15
37 -4 0 -20 -39 -35 -87 -17 -57 -35 -93 -49 -103 -11 -8 -38 -30 -60 -49 -21
-20 -49 -37 -63 -39 -14 -1 -31 -8 -38 -15 -18 -18 -193 -95 -295 -131 l-65
-22 -3 -312 -2 -312 289 0 c221 0 291 3 294 13 4 9 6 9 6 0 1 -10 151 -13 706
-13 l705 0 0 260 0 261 -97 47 c-54 25 -101 50 -104 55 -3 5 -9 8 -13 8 -7 -1
-36 15 -111 65 -66 43 -120 65 -132 53 -6 -6 -19 11 -33 43 -14 29 -33 64 -43
78 -59 81 -107 181 -107 223 0 10 12 22 27 28 l26 10 -21 15 c-25 17 -30 36
-7 28 8 -4 12 -10 9 -15 -3 -5 0 -9 5 -9 17 0 13 30 -4 37 -18 6 -47 58 -38
67 4 3 2 6 -4 6 -6 0 -27 16 -48 35 -74 71 -203 124 -324 134 -84 7 -85 7
-160 -32z m426 -70 c4 -6 -2 -8 -18 -4 -13 4 -35 7 -49 8 -22 0 -23 1 -6 8 24
9 64 3 73 -12z m67 -344 c-8 -43 -67 -168 -86 -179 -6 -4 -2 8 10 28 12 19 22
41 22 47 0 13 53 141 58 141 2 0 0 -17 -4 -37z m-724 -223 c0 -5 -2 -10 -4
-10 -3 0 -8 5 -11 10 -3 6 -1 10 4 10 6 0 11 -4 11 -10z m623 -17 c-18 -29
-76 -105 -103 -134 -8 -9 -22 -25 -32 -36 -22 -28 -85 -37 -153 -23 -58 12
-57 11 -109 103 l-27 48 52 -38 c46 -33 61 -38 119 -41 91 -5 152 21 214 94
52 59 66 69 39 27z m187 3 c0 -2 -8 -10 -17 -17 -16 -13 -17 -12 -4 4 13 16
21 21 21 13z m-765 -67 c22 -41 11 -36 -14 7 -12 19 -16 32 -11 29 6 -3 17
-19 25 -36z m725 17 c0 -2 -8 -10 -17 -17 -16 -13 -17 -12 -4 4 13 16 21 21
21 13z m-672 -42 c-4 -3 -12 5 -18 18 -12 22 -12 22 6 6 10 -10 15 -20 12 -24z
m732 -49 c0 -8 -4 -15 -10 -15 -5 0 -7 7 -4 15 4 8 8 15 10 15 2 0 4 -7 4 -15z
m-80 -9 c0 -2 -8 -10 -17 -17 -16 -13 -17 -12 -4 4 13 16 21 21 21 13z m-632
-41 c-3 -3 -9 2 -12 12 -6 14 -5 15 5 6 7 -7 10 -15 7 -18z m473 2 c-10 -9
-11 -8 -5 6 3 10 9 15 12 12 3 -3 0 -11 -7 -18z m250 -4 c-12 -20 -14 -14 -5
12 4 9 9 14 11 11 3 -2 0 -13 -6 -23z m-48 -38 c-9 -19 -20 -35 -25 -35 -4 0
2 16 13 35 12 19 23 35 25 35 2 0 -4 -16 -13 -35z m-638 -11 c15 -19 25 -37
22 -40 -2 -2 -16 14 -31 36 -33 50 -28 52 9 4z m439 -19 c-45 -52 -72 -75 -43
-37 18 23 82 92 87 92 2 0 -18 -25 -44 -55z m69 12 c-15 -19 -30 -32 -32 -30
-5 3 49 63 57 63 2 0 -9 -15 -25 -33z m106 -72 c-12 -19 -23 -35 -25 -35 -6 0
14 40 29 58 18 23 16 12 -4 -23z m-185 -15 c-21 -22 -39 -40 -41 -40 -2 0 11
18 28 40 18 22 36 40 41 40 5 0 -8 -18 -28 -40z m-420 4 c3 -8 2 -12 -4 -9 -6
3 -10 10 -10 16 0 14 7 11 14 -7z m366 2 c0 -2 -8 -10 -17 -17 -16 -13 -17
-12 -4 4 13 16 21 21 21 13z m-240 -16 c0 -5 -4 -10 -10 -10 -5 0 -10 5 -10
10 0 6 5 10 10 10 6 0 10 -4 10 -10z m-813 -42 c-3 -8 -6 -5 -6 6 -1 11 2 17
5 13 3 -3 4 -12 1 -19z m1204 -11 l-24 -22 19 27 c10 14 21 24 23 22 3 -3 -6
-15 -18 -27z m-191 19 c0 -2 -8 -10 -17 -17 -16 -13 -17 -12 -4 4 13 16 21 21
21 13z m-282 -31 c-3 -3 -9 2 -12 12 -6 14 -5 15 5 6 7 -7 10 -15 7 -18z m-73
-5 c3 -5 1 -10 -4 -10 -6 0 -11 5 -11 10 0 6 2 10 4 10 3 0 8 -4 11 -10z m348
-82 c15 -26 26 -48 23 -48 -5 0 -86 130 -85 138 0 9 27 -30 62 -90z m-242 55
c13 -16 12 -17 -3 -4 -17 13 -22 21 -14 21 2 0 10 -8 17 -17z m419 14 c0 -2
-17 -19 -37 -38 -21 -18 -30 -25 -20 -13 9 11 14 24 10 29 -5 4 -2 5 5 1 7 -4
15 -1 18 8 5 13 24 23 24 13z m-490 -50 c0 -4 -7 -2 -15 7 -8 8 -15 21 -15 28
1 14 30 -20 30 -35z m14 27 c3 -8 2 -12 -4 -9 -6 3 -10 10 -10 16 0 14 7 11
14 -7z m335 -29 c17 -25 27 -45 23 -45 -4 0 -19 20 -34 45 -15 25 -26 45 -23
45 2 0 17 -20 34 -45z m139 16 c-13 -15 -25 -27 -27 -25 -4 4 39 54 47 54 2 0
-7 -13 -20 -29z m-369 -45 c-3 -3 -11 5 -18 17 -13 21 -12 21 5 5 10 -10 16
-20 13 -22z m331 5 c0 -5 -7 -12 -16 -15 -14 -5 -15 -4 -4 9 14 17 20 19 20 6z
m-375 -21 c10 -11 13 -20 7 -20 -6 0 -16 9 -22 20 -6 11 -9 20 -7 20 2 0 12
-9 22 -20z m-485 -30 c13 -8 12 -10 -2 -10 -12 0 -18 -8 -19 -22 0 -13 -3 -17
-6 -10 -2 6 -14 12 -26 12 -22 1 -22 1 2 20 26 23 30 23 51 10z m450 -32 c15
-21 17 -28 6 -19 -16 13 -41 51 -33 51 2 0 14 -15 27 -32z m76 18 c8 -8 14
-19 14 -25 0 -6 3 -11 8 -11 7 -1 46 -50 39 -50 -2 0 -25 23 -50 50 -25 28
-42 50 -36 50 6 0 17 -6 25 -14z m-105 -28 c11 -21 11 -22 -4 -9 -10 7 -17 17
-17 22 0 15 9 10 21 -13z m-401 9 c0 -2 -10 -12 -21 -23 -22 -19 -22 -19 -8 4
12 19 29 30 29 19z m155 -6 c-3 -5 5 -12 17 -14 17 -3 14 -5 -9 -6 -23 -1 -33
3 -33 14 0 8 7 15 16 15 8 0 13 -4 9 -9z m-222 -15 c4 -10 1 -13 -9 -9 -15 6
-19 23 -5 23 5 0 11 -7 14 -14z m557 -6 c0 -5 -2 -10 -4 -10 -3 0 -8 5 -11 10
-3 6 -1 10 4 10 6 0 11 -4 11 -10z m5 -109 c-6 -5 -40 31 -64 69 -18 27 -13
23 22 -15 25 -27 44 -52 42 -54z m-7 68 c13 -16 20 -29 15 -29 -5 0 -19 13
-31 30 -29 39 -14 38 16 -1z m-318 11 c0 -5 -5 -10 -11 -10 -5 0 -7 5 -4 10 3
6 8 10 11 10 2 0 4 -4 4 -10z m-300 -21 c0 -5 -4 -9 -10 -9 -5 0 -10 7 -10 16
0 8 5 12 10 9 6 -3 10 -10 10 -16z m1291 -12 c-10 -9 -11 -8 -5 6 3 10 9 15
12 12 3 -3 0 -11 -7 -18z m-566 2 c11 -16 1 -19 -13 -3 -7 8 -8 14 -3 14 5 0
13 -5 16 -11z m-164 -16 c13 -16 12 -17 -3 -4 -17 13 -22 21 -14 21 2 0 10 -8
17 -17z m646 -25 c-3 -8 -6 -5 -6 6 -1 11 2 17 5 13 3 -3 4 -12 1 -19z"/>
<path d="M1545 1380 c-3 -5 -1 -10 4 -10 6 0 11 5 11 10 0 6 -2 10 -4 10 -3 0
-8 -4 -11 -10z"/>
<path d="M1421 1224 c0 -11 3 -14 6 -6 3 7 2 16 -1 19 -3 4 -6 -2 -5 -13z"/>
<path d="M1063 974 c-44 -34 -70 -37 -112 -13 l-36 21 30 -25 c42 -37 77 -34
123 8 43 40 41 46 -5 9z"/>
<path d="M690 920 c6 -11 13 -20 16 -20 2 0 0 9 -6 20 -6 11 -13 20 -16 20 -2
0 0 -9 6 -20z"/>
<path d="M1110 905 c0 -20 -32 -35 -74 -35 -20 0 -36 -4 -36 -8 0 -10 93 1
128 15 22 8 22 9 2 26 -16 14 -20 14 -20 2z"/>
<path d="M811 896 c-9 -11 -7 -14 11 -14 13 0 46 -5 73 -11 100 -21 103 -22
70 -6 -16 8 -44 14 -61 15 -16 0 -39 7 -50 15 -24 18 -29 18 -43 1z"/>
<path d="M980 793 c-57 -7 -60 -23 -4 -23 38 0 51 4 51 15 0 8 -3 14 -6 13 -3
0 -22 -3 -41 -5z"/>
</g>
</svg>
